<?xml version="1.0" standalone="no"?>
<!DOCTYPE svg PUBLIC "-//W3C//DTD SVG 20010904//EN"
 "http://www.w3.org/TR/2001/REC-SVG-20010904/DTD/svg10.dtd">
<svg version="1.0" xmlns="http://www.w3.org/2000/svg"
 width="700.000000pt" height="700.000000pt" viewBox="0 0 700.000000 700.000000"
 preserveAspectRatio="xMidYMid meet">
<metadata>
Created by potrace 1.14, written by Peter Selinger 2001-2017
</metadata>
<g transform="translate(0.000000,700.000000) scale(0.100000,-0.100000)"
fill="#000000" stroke="none">
<path d="M1165 5219 c-409 -52 -750 -287 -925 -638 -88 -175 -124 -340 -124
-566 -1 -176 13 -263 65 -420 142 -424 518 -716 999 -775 46 -5 230 -10 407
-10 178 0 323 -4 323 -9 0 -17 -87 -89 -121 -99 -19 -6 -96 -21 -171 -33
l-138 -22 0 -439 0 -438 755 0 754 0 176 158 c97 86 181 159 186 160 5 2 90
-69 189 -157 l179 -161 971 0 c616 0 1006 4 1068 11 574 62 975 357 1091 802
93 355 22 716 -183 933 l-74 80 33 44 c187 254 213 679 60 995 -159 328 -478
527 -935 580 -101 12 -304 15 -1077 15 l-952 0 -177 -157 c-96 -87 -181 -159
-187 -160 -7 -2 -92 69 -191 157 l-178 160 -877 -1 c-482 -1 -907 -6 -946 -10z
m4615 -322 c360 -64 576 -225 660 -492 30 -96 39 -292 16 -388 -24 -102 -70
-183 -145 -257 -72 -71 -184 -136 -283 -165 -32 -9 -58 -18 -58 -20 0 -2 30
-13 68 -25 253 -83 446 -248 502 -428 34 -109 45 -271 26 -382 -58 -335 -289
-542 -706 -633 -91 -19 -132 -21 -881 -24 -878 -5 -867 -5 -1008 64 -94 46
-201 150 -249 240 -58 110 -72 190 -72 414 0 185 1 198 19 204 39 12 138 83
193 139 74 75 140 180 174 281 36 107 44 267 19 380 -22 99 -90 235 -155 308
-54 60 -79 69 -116 43 -18 -13 -19 -30 -22 -264 l-3 -250 -196 -143 c-108 -78
-201 -142 -207 -142 -7 0 -100 64 -208 142 l-197 142 -3 250 c-3 235 -4 252
-22 265 -37 26 -62 17 -116 -43 -63 -71 -136 -215 -155 -308 -32 -155 -12
-330 55 -470 61 -128 189 -260 308 -318 l42 -21 0 -196 c0 -223 -14 -303 -72
-413 -48 -90 -156 -195 -248 -241 -124 -61 -169 -66 -577 -66 l-363 0 0 148 0
147 73 22 c141 43 267 152 331 286 45 96 56 154 56 307 l0 129 -532 4 c-583 4
-596 5 -758 68 -287 110 -466 327 -531 644 -16 77 -16 283 0 360 45 217 146
395 294 515 77 63 235 143 342 172 79 23 86 23 940 25 l860 3 171 -152 c94
-84 202 -181 241 -215 l70 -62 240 214 241 215 248 3 c137 2 553 2 924 2 584
-1 688 -4 770 -18z"/>
<path d="M4450 4100 l0 -250 418 0 c414 1 624 9 693 30 102 29 149 99 149 220
-1 124 -41 184 -148 216 -77 24 -296 34 -714 34 l-398 0 0 -250z"/>
<path d="M1415 4309 c-144 -14 -223 -55 -270 -140 -28 -50 -30 -62 -30 -154 0
-146 38 -221 135 -270 94 -47 127 -50 585 -50 l430 0 3 308 2 307 -374 0
c-206 0 -380 2 -388 4 -7 2 -49 0 -93 -5z"/>
<path d="M4450 2975 l0 -325 473 0 c259 0 513 5 563 10 248 26 347 112 348
305 2 207 -88 295 -334 325 -47 5 -296 10 -567 10 l-483 0 0 -325z"/>
</g>
</svg>
