<svg width="67" height="35" viewBox="0 0 67 35" fill="none" xmlns="http://www.w3.org/2000/svg">
<g clip-path="url(#clip0_108_17157)">
<path d="M40.2184 34.4752C40.1957 34.4752 40.1187 34.4735 40.1187 34.4735H35.133L31.8459 31.538L28.5588 34.4735H23.2651V34.4647H13.5455V25.1493L16.5002 24.6699C16.6069 24.6524 16.7119 24.6262 16.8116 24.5895H13.0294C11.1051 24.5895 9.34348 24.2693 7.79528 23.6395C6.22433 22.9993 4.8773 22.1141 3.78918 21.0067C2.68357 19.8801 1.84561 18.5436 1.29805 17.0321C0.78373 15.6116 0.523071 14.1176 0.523071 12.5887C0.523071 11.0597 0.78373 9.56571 1.29805 8.14521C1.84036 6.64773 2.66957 5.3112 3.76294 4.17235C4.85631 3.03525 6.21208 2.13081 7.79528 1.48704C9.34348 0.857259 11.1034 0.537121 13.0294 0.537121H13.5455L14.0703 0.530123H28.557L31.8441 3.4656L35.1347 0.526625H52.2227C53.8427 0.524875 55.3681 0.696315 56.7571 1.03395C58.2844 1.40657 59.6489 2.00136 60.8157 2.80083C62.1208 3.69477 63.1529 4.87385 63.8824 6.3031C64.5944 7.70086 64.9548 9.32954 64.9548 11.1419C64.9548 13.2342 64.3932 15.043 63.2841 16.5248C65.0492 18.1954 65.9432 20.5029 65.9432 23.3824C65.9432 24.8589 65.6633 26.2881 65.1122 27.6316C64.5192 29.0731 63.5938 30.3344 62.3604 31.3788C61.2093 32.355 59.7626 33.1282 58.0657 33.6775C56.4563 34.1971 54.5739 34.4613 52.4711 34.4613H41.8121L41.2873 34.4717H40.2202L40.2184 34.4752Z" fill="url(#paint0_linear_108_17157)"/>
<path d="M52.2227 1.04963C53.8024 1.04963 55.2842 1.21582 56.6329 1.54471C58.0972 1.90333 59.404 2.47188 60.5201 3.23462C61.7516 4.07957 62.7261 5.19043 63.4153 6.54271C64.0888 7.86525 64.43 9.41346 64.43 11.1436C64.43 13.3006 63.8019 15.1305 62.5651 16.5859C62.6648 16.6717 62.7628 16.7591 62.859 16.8484C64.5559 18.4211 65.4166 20.62 65.4166 23.3841C65.4166 24.7906 65.1507 26.1533 64.6259 27.4339C64.0661 28.7967 63.1896 29.9898 62.0193 30.9799C60.9207 31.9106 59.5352 32.6506 57.9012 33.1789C56.3443 33.6827 54.5162 33.9381 52.4694 33.9381H41.2856V33.9486H40.2184C40.1869 33.9504 40.1554 33.9486 40.1257 33.9486H35.3341L31.8459 30.8347L28.3593 33.9486H23.7917V33.9399H14.0721V25.5953L16.5859 25.1877C17.2875 25.074 17.8647 24.6471 18.1901 24.0646H13.0312C11.1751 24.0646 9.47993 23.7584 7.9947 23.1531C6.49023 22.5409 5.20268 21.6942 4.16529 20.6393C3.11216 19.5669 2.31444 18.2933 1.79312 16.8536C1.2998 15.4908 1.04963 14.0563 1.04963 12.5886C1.04963 11.1209 1.2998 9.68636 1.79312 8.32359C2.31094 6.89434 3.10166 5.62078 4.14255 4.53616C5.18519 3.45154 6.47973 2.59084 7.9947 1.97331C9.47818 1.36802 11.1733 1.06188 13.0312 1.06188H14.0721V1.05488H28.3593L31.8459 4.16879L35.3341 1.05488H52.2227V1.04963ZM18.3686 23.6517C18.3721 23.643 18.3738 23.6342 18.3773 23.6255H18.3686V23.6517ZM52.2227 0H34.9335L34.6344 0.267656L31.8459 2.75704L29.0591 0.267656L28.7599 0.00174939H13.0224V0.0104963C11.0316 0.0104963 9.20703 0.344629 7.59934 0.9989C5.94792 1.67067 4.53091 2.61533 3.38681 3.80667C2.24272 4.998 1.37502 6.39751 0.806468 7.96496C0.271155 9.44145 0 10.9984 0 12.5868C0 14.1753 0.271155 15.7322 0.806468 17.2087C1.38027 18.7902 2.25671 20.1914 3.41655 21.3723C4.55541 22.5304 5.96191 23.4558 7.59934 24.1241C9.20878 24.7783 11.0334 25.1125 13.0224 25.1125V34.9878H22.742V34.9965H28.7599L29.0591 34.7306L31.8459 32.2412L34.6344 34.7306L34.9335 34.9965H40.131C40.1607 34.9965 40.1887 34.9983 40.2184 34.9983H42.3352V34.986H52.4694C54.6264 34.986 56.563 34.7131 58.2249 34.176C59.9883 33.6057 61.4945 32.7993 62.6981 31.7794C63.9961 30.679 64.9723 29.3512 65.5968 27.831C66.1741 26.4228 66.4662 24.927 66.4662 23.3823C66.4662 20.5326 65.6265 18.2076 63.9664 16.467C64.9705 14.966 65.4778 13.1799 65.4778 11.1419C65.4778 9.24551 65.0982 7.53636 64.3495 6.06513C63.5798 4.55541 62.4899 3.31159 61.1114 2.36867C59.892 1.53421 58.468 0.91318 56.8813 0.524816C55.4521 0.176688 53.8846 0 52.2227 0V0Z" fill="white"/>
<path d="M14.352 9.77031H21.521V15.6605H14.352C13.0312 15.6605 12.0655 15.4226 11.4515 14.9433C10.8392 14.4657 10.5313 13.6802 10.5313 12.5868C10.5313 11.5967 10.8375 10.8794 11.4515 10.4351C12.0638 9.99249 13.0312 9.76857 14.352 9.76857V9.77031ZM51.5317 14.0878C52.2227 14.0371 52.7668 13.9269 53.1604 13.7554C53.5558 13.5857 53.8339 13.3461 54.0001 13.0382C54.1646 12.7303 54.2468 12.3209 54.2468 11.8084C54.2468 11.2958 54.1646 10.8864 54.0001 10.5785C53.8357 10.2706 53.5558 10.0327 53.1604 9.86128C52.765 9.69159 52.2227 9.57963 51.5317 9.5289C50.8407 9.47817 49.9678 9.45193 48.9146 9.45193H42.2005V14.1648H48.9146C49.9678 14.1648 50.8407 14.1385 51.5317 14.0878ZM54.3465 20.0795C53.6222 19.6194 52.3714 19.3884 50.5941 19.3884H42.2005V25.534H50.5941C52.3714 25.534 53.6222 25.3031 54.3465 24.843C55.0707 24.3829 55.4329 23.5887 55.4329 22.4621C55.4329 21.3355 55.0707 20.5413 54.3465 20.0812V20.0795ZM65.4184 23.3823C65.4184 24.7888 65.1525 26.1516 64.6276 27.4321C64.0678 28.7949 63.1914 29.988 62.0211 30.9781C60.9224 31.9088 59.5369 32.6488 57.903 33.1771C56.346 33.6809 54.5179 33.9364 52.4711 33.9364H41.2873V33.9469H40.2202C40.1887 33.9486 40.1572 33.9469 40.1275 33.9469H35.3359L31.8476 30.8329L28.3611 33.9469H23.7934V33.9381H14.0738V25.5935L16.5877 25.1859C17.2892 25.0722 17.8665 24.6454 18.1919 24.0628H13.0329C11.1768 24.0628 9.48169 23.7567 7.99646 23.1514C6.49199 22.5391 5.20444 21.6924 4.16705 20.6375C3.11392 19.5651 2.3162 18.2916 1.79488 16.8518C1.30155 15.4891 1.05139 14.0546 1.05139 12.5868C1.05139 11.1191 1.30155 9.68459 1.79488 8.32182C2.3127 6.89257 3.10342 5.61902 4.14431 4.5344C5.18694 3.44978 6.48149 2.58908 7.99646 1.97154C9.47994 1.36625 11.1751 1.06011 13.0329 1.06011H14.0738V1.05311H28.3611L31.8476 4.16702L35.3359 1.05311H52.2245C53.8042 1.05136 55.2859 1.21756 56.6347 1.54644C58.0989 1.90507 59.4057 2.47362 60.5218 3.23635C61.7534 4.0813 62.7278 5.19217 63.4171 6.54444C64.0906 7.86698 64.4317 9.41519 64.4317 11.1453C64.4317 13.3023 63.8037 15.1322 62.5669 16.5877C62.6666 16.6734 62.7645 16.7609 62.8608 16.8501C64.5577 18.4228 65.4184 20.6218 65.4184 23.3858V23.3823ZM62.4444 23.3823C62.4444 21.4702 61.9091 20.02 60.8402 19.0281C59.7696 18.0379 58.3963 17.3049 56.7169 16.8256V16.7224C58.0989 16.4145 59.2343 15.7917 60.123 14.8523C61.0117 13.9129 61.456 12.676 61.456 11.1383C61.456 9.87528 61.2251 8.79066 60.765 7.88622C60.3032 6.98179 59.6611 6.24705 58.8389 5.68374C58.0167 5.12044 57.0441 4.70234 55.9262 4.42943C54.8066 4.15653 53.5733 4.02008 52.2227 4.02008H41.1106V4.04107H36.4765L35.9832 4.48191L35.5283 4.88952L34.6396 5.68025L31.8476 8.17487L29.0556 5.68025L28.1669 4.88952L27.7121 4.48191L27.2187 4.04107H21.8674V4.02882H13.0312C11.5547 4.02882 10.2497 4.25974 9.11607 4.71983C7.98422 5.17992 7.0413 5.80445 6.28731 6.58993C5.53332 7.3754 4.96652 8.28858 4.58865 9.32947C4.21079 10.3721 4.0236 11.455 4.0236 12.5816C4.0236 13.7082 4.21254 14.7928 4.58865 15.8337C4.96652 16.8763 5.53157 17.7808 6.28731 18.5487C7.0413 19.3167 7.98597 19.9308 9.11607 20.3926C10.2479 20.8527 11.553 21.0836 13.0312 21.0836H21.472V22.2225V22.952C21.472 25.5638 19.5652 27.7313 17.067 28.1371V30.9414H23.7952C25.2087 30.8609 26.4822 30.2574 27.4199 29.318C28.4311 28.3086 29.0556 26.9143 29.0556 25.3714V22.2854C27.0893 21.402 25.618 19.6124 25.172 17.4501C25.081 17.004 25.032 16.5404 25.032 16.0664C25.032 15.6902 25.0635 15.3141 25.1247 14.9415C25.1842 14.5794 25.2752 14.2243 25.3924 13.8761C25.5078 13.535 25.6513 13.2026 25.8192 12.8842C25.9872 12.5693 26.1779 12.2667 26.393 11.9815C26.4997 11.8398 26.6117 11.7016 26.7289 11.5687C26.7866 11.5022 26.8479 11.4375 26.9091 11.3728C26.9843 11.2923 27.0508 11.2118 27.1523 11.1593C27.4654 10.9984 27.8555 11.1628 27.9412 11.5092C27.9552 11.5617 27.957 11.6159 27.957 11.6701V16.0874L31.8476 18.9039L35.7383 16.0874V11.6701C35.7383 11.6159 35.74 11.5617 35.754 11.5092C35.8397 11.1628 36.2298 10.9984 36.543 11.1593C36.6444 11.2118 36.7109 11.2923 36.7861 11.3728C36.8474 11.4375 36.9086 11.5022 36.9663 11.5687C37.0835 11.7016 37.1955 11.8398 37.3022 11.9815C37.5174 12.2667 37.7081 12.5693 37.876 12.8842C38.0439 13.2026 38.1874 13.535 38.3029 13.8761C38.4201 14.2243 38.511 14.5794 38.5705 14.9415C38.6317 15.3141 38.6632 15.6902 38.6632 16.0664C38.6632 16.5404 38.6143 17.004 38.5233 17.4501C38.0772 19.6124 36.606 21.402 34.6396 22.2854V25.3714C34.6396 26.9143 35.2642 28.3086 36.2753 29.318C37.213 30.2574 38.4848 30.8609 39.8983 30.9414H41.1106V30.9502H41.2856V30.9589H52.4694C54.2135 30.9589 55.7198 30.7542 56.9881 30.3449C58.2546 29.9355 59.292 29.3897 60.0985 28.7057C60.905 28.0234 61.4962 27.2205 61.8759 26.2985C62.2537 25.3766 62.4444 24.4039 62.4444 23.3788V23.3823ZM18.3791 23.622H18.3703V23.6482C18.3738 23.6395 18.3756 23.6307 18.3791 23.622Z" fill="#1E1E1E"/>
</g>
<defs>
<linearGradient id="paint0_linear_108_17157" x1="0.524821" y1="17.4992" x2="65.9414" y2="17.4992" gradientUnits="userSpaceOnUse">
<stop stop-color="#F37527"/>
<stop offset="1" stop-color="#F8A152"/>
</linearGradient>
<clipPath id="clip0_108_17157">
<rect width="66.4662" height="35" fill="white"/>
</clipPath>
</defs>
</svg>
