<svg xmlns="http://www.w3.org/2000/svg" width="40.52" height="33.06" viewBox="0 0 40.52 33.06">
    <path d="M9.68,.47C16.72-.16,23.8-.16,30.84,.47l3.03,.27c3.02,.27,5.47,2.58,5.91,5.59,.99,6.76,.99,13.64,0,20.4-.44,3-2.88,5.32-5.91,5.59l-3.03,.27c-7.04,.63-14.12,.63-21.15,0l-3.03-.27c-3.02-.27-5.47-2.58-5.91-5.59C-.25,19.97-.25,13.09,.74,6.33,1.18,3.32,3.62,1.01,6.65,.74l3.03-.27Zm-1.71,5.74c-.46-.25-1.03-.24-1.48,.03-.45,.27-.73,.76-.73,1.29V26.53c0,.83,.67,1.5,1.5,1.5s1.5-.67,1.5-1.5V10.04l10.79,5.81c.44,.24,.98,.24,1.42,0l10.79-5.81V26.53c0,.83,.67,1.5,1.5,1.5s1.5-.67,1.5-1.5V7.53c0-.53-.28-1.02-.73-1.29-.45-.27-1.02-.28-1.48-.03l-12.29,6.62L7.97,6.21Z" style="fill:#1e1e1e;"/>
</svg>