<svg xmlns="http://www.w3.org/2000/svg" width="18.38" height="18.42" viewBox="0 0 18.38 18.42">
    <path d="M12.44,9.21c0,1.79-1.46,3.25-3.25,3.25s-3.25-1.46-3.25-3.25,1.46-3.25,3.25-3.25,3.25,1.46,3.25,3.25Zm5.63,5.31c-.22,1.91-1.75,3.4-3.65,3.61-3.45,.39-7.01,.39-10.46,0-1.9-.21-3.43-1.71-3.65-3.61C-.1,10.99-.1,7.43,.31,3.9,.53,2,2.06,.5,3.96,.29,7.41-.1,10.97-.1,14.42,.29c1.9,.21,3.43,1.71,3.65,3.61,.41,3.52,.41,7.09,0,10.61Zm-4.13-5.31c0-2.62-2.13-4.75-4.75-4.75s-4.75,2.13-4.75,4.75,2.13,4.75,4.75,4.75,4.75-2.13,4.75-4.75Zm1.25-5c0-.55-.45-1-1-1s-1,.45-1,1,.45,1,1,1,1-.45,1-1Z" style="fill:#fff;"/>
</svg>