<svg xmlns="http://www.w3.org/2000/svg" width="66.47" height="35" xmlns:xlink="http://www.w3.org/1999/xlink" viewBox="0 0 66.47 35">
    <defs>
        <linearGradient id="logo-gradient" x1=".52" y1="17.5" x2="65.94" y2="17.5" gradientTransform="matrix(1, 0, 0, 1, 0, 0)" gradientUnits="userSpaceOnUse">
            <stop offset="0" stop-color="#f37527"/><stop offset="1" stop-color="#f8a152"/>
        </linearGradient>
    </defs>
    <path d="M40.22,34.48s-.1,0-.1,0h-4.99l-3.29-2.94-3.29,2.94H13.55v-9.32l2.95-.48c.11-.02,.21-.04,.31-.08h-3.78c-1.92,0-3.69-.32-5.23-.95-1.57-.64-2.92-1.53-4.01-2.63-1.11-1.13-1.94-2.46-2.49-3.97-.51-1.42-.77-2.91-.77-4.44s.26-3.02,.77-4.44c.54-1.5,1.37-2.83,2.46-3.97,1.09-1.14,2.45-2.04,4.03-2.69,1.55-.63,3.31-.95,5.23-.95h15.53l3.29,2.93,3.29-2.94h17.09c1.62,0,3.15,.17,4.53,.51,1.53,.37,2.89,.97,4.06,1.77,1.31,.89,2.34,2.07,3.07,3.5,.71,1.4,1.07,3.03,1.07,4.84,0,2.09-.56,3.9-1.67,5.38,1.77,1.67,2.66,3.98,2.66,6.86,0,1.48-.28,2.91-.83,4.25-.59,1.44-1.52,2.7-2.75,3.75-1.15,.98-2.6,1.75-4.29,2.3-1.61,.52-3.49,.78-5.59,.78h-12.25Z" style="fill:url(#logo-gradient);"/>
    <path d="M52.22,1.05c1.58,0,3.06,.17,4.41,.5,1.46,.36,2.77,.93,3.89,1.69,1.23,.84,2.21,1.96,2.9,3.31,.67,1.32,1.01,2.87,1.01,4.6,0,2.16-.63,3.99-1.86,5.44,.1,.09,.2,.17,.29,.26,1.7,1.57,2.56,3.77,2.56,6.54,0,1.41-.27,2.77-.79,4.05-.56,1.36-1.44,2.56-2.61,3.55-1.1,.93-2.48,1.67-4.12,2.2-1.56,.5-3.38,.76-5.43,.76h-12.25s-.06,.01-.09,.01h-4.79l-3.49-3.11-3.49,3.11H14.07v-8.35l2.51-.41c.7-.11,1.28-.54,1.6-1.12h-5.16c-1.86,0-3.55-.31-5.04-.91-1.5-.61-2.79-1.46-3.83-2.51-1.05-1.07-1.85-2.35-2.37-3.79-.49-1.36-.74-2.8-.74-4.26s.25-2.9,.74-4.27c.52-1.43,1.31-2.7,2.35-3.79,1.04-1.08,2.34-1.95,3.85-2.56,1.48-.61,3.18-.91,5.04-.91h15.33l3.49,3.11,3.49-3.11h16.89ZM18.37,23.65v-.03h0v.03ZM52.22,0h-17.29l-.3,.27-2.79,2.49L29.06,.27,28.76,0H13.02c-1.99,0-3.82,.34-5.42,1-1.65,.67-3.07,1.62-4.21,2.81-1.14,1.19-2.01,2.59-2.58,4.16-.54,1.48-.81,3.03-.81,4.62s.27,3.15,.81,4.62c.57,1.58,1.45,2.98,2.61,4.16,1.14,1.16,2.55,2.08,4.18,2.75,1.61,.65,3.43,.99,5.42,.99v9.88h15.74l.3-.26,2.79-2.49,2.79,2.49,.3,.27h5.2s.06,0,.09,0h12.25c2.16-.01,4.09-.29,5.76-.82,1.76-.57,3.27-1.38,4.47-2.4,1.3-1.1,2.27-2.43,2.9-3.95,.58-1.41,.87-2.9,.87-4.45,0-2.85-.84-5.17-2.5-6.92,1-1.5,1.51-3.29,1.51-5.33,0-1.9-.38-3.61-1.13-5.08-.77-1.51-1.86-2.75-3.24-3.7-1.22-.83-2.64-1.46-4.23-1.84-1.43-.35-3-.52-4.66-.52h0Z" style="fill:#fff;"/>
    <path d="M14.35,9.77h7.17v5.89h-7.17c-1.32,0-2.29-.24-2.9-.72-.61-.48-.92-1.26-.92-2.36,0-.99,.31-1.71,.92-2.15,.61-.44,1.58-.67,2.9-.67h0Zm37.18,4.32c.69-.05,1.24-.16,1.63-.33,.4-.17,.67-.41,.84-.72,.16-.31,.25-.72,.25-1.23s-.08-.92-.25-1.23c-.16-.31-.44-.55-.84-.72-.4-.17-.94-.28-1.63-.33-.69-.05-1.56-.08-2.62-.08h-6.71v4.71h6.71c1.05,0,1.93-.03,2.62-.08Zm2.81,5.99c-.72-.46-1.98-.69-3.75-.69h-8.39v6.15h8.39c1.78,0,3.03-.23,3.75-.69,.72-.46,1.09-1.25,1.09-2.38s-.36-1.92-1.09-2.38h0Zm11.07,3.3c0,1.41-.27,2.77-.79,4.05-.56,1.36-1.44,2.56-2.61,3.55-1.1,.93-2.48,1.67-4.12,2.2-1.56,.5-3.39,.76-5.43,.76h-12.25s-.06,.01-.09,.01h-4.79l-3.49-3.11-3.49,3.11H14.07v-8.35l2.51-.41c.7-.11,1.28-.54,1.6-1.12h-5.16c-1.86,0-3.55-.31-5.04-.91-1.5-.61-2.79-1.46-3.83-2.51-1.05-1.07-1.85-2.35-2.37-3.79-.49-1.36-.74-2.8-.74-4.27s.25-2.9,.74-4.26c.52-1.43,1.31-2.7,2.35-3.79,1.04-1.08,2.34-1.95,3.85-2.56,1.48-.61,3.18-.91,5.04-.91h15.33l3.49,3.11,3.49-3.11h16.89c1.58,0,3.06,.16,4.41,.49,1.46,.36,2.77,.93,3.89,1.69,1.23,.84,2.21,1.96,2.9,3.31,.67,1.32,1.01,2.87,1.01,4.6,0,2.16-.63,3.99-1.86,5.44,.1,.09,.2,.17,.29,.26,1.7,1.57,2.56,3.77,2.56,6.54h0Zm-2.97,0c0-1.91-.54-3.36-1.6-4.35-1.07-.99-2.44-1.72-4.12-2.2v-.1c1.38-.31,2.52-.93,3.41-1.87,.89-.94,1.33-2.18,1.33-3.71,0-1.26-.23-2.35-.69-3.25-.46-.9-1.1-1.64-1.93-2.2-.82-.56-1.79-.98-2.91-1.25-1.12-.27-2.35-.41-3.7-.41h-11.11v.02h-4.63l-.49,.44-.45,.41-.89,.79-2.79,2.49-2.79-2.49-.89-.79-.45-.41-.49-.44H13.03c-1.48-.01-2.78,.22-3.92,.68-1.13,.46-2.07,1.08-2.83,1.87-.75,.79-1.32,1.7-1.7,2.74-.38,1.04-.57,2.13-.57,3.25s.19,2.21,.57,3.25c.38,1.04,.94,1.95,1.7,2.72,.75,.77,1.7,1.38,2.83,1.84,1.13,.46,2.44,.69,3.92,.69h8.44v1.87c0,2.61-1.91,4.78-4.41,5.19v2.8h6.73c1.41-.08,2.69-.68,3.62-1.62,1.01-1.01,1.64-2.4,1.64-3.95v-3.09c-1.97-.88-3.44-2.67-3.88-4.84-.09-.45-.14-.91-.14-1.38,0-.38,.03-.75,.09-1.12,.06-.36,.15-.72,.27-1.07,.12-.34,.26-.67,.43-.99,.17-.31,.36-.62,.57-.9,.11-.14,.22-.28,.34-.41,.06-.07,.12-.13,.18-.2,.08-.08,.14-.16,.24-.21,.31-.16,.7,0,.79,.35,.01,.05,.02,.11,.02,.16v4.42l3.89,2.82,3.89-2.82v-4.42c0-.05,0-.11,.02-.16,.09-.35,.48-.51,.79-.35,.1,.05,.17,.13,.24,.21,.06,.06,.12,.13,.18,.2,.12,.13,.23,.27,.34,.41,.22,.29,.41,.59,.57,.9,.17,.32,.31,.65,.43,.99,.12,.35,.21,.7,.27,1.07,.06,.37,.09,.75,.09,1.12,0,.47-.05,.94-.14,1.38-.45,2.16-1.92,3.95-3.88,4.84v3.09c0,1.54,.62,2.94,1.64,3.95,.94,.94,2.21,1.54,3.62,1.62h1.39v.02h11.18c1.74,0,3.25-.2,4.52-.61,1.27-.41,2.3-.96,3.11-1.64,.81-.68,1.4-1.49,1.78-2.41,.38-.92,.57-1.89,.57-2.92h0Zm-44.07,.24h0v0Z" style="fill:#1e1e1e;"/>
</svg>