<svg width="34" height="34" viewBox="0 0 34 34" fill="none" xmlns="http://www.w3.org/2000/svg">
<path d="M2.00033 13.7211C5.83313 22.0689 12.6531 28.7059 21.1322 32.3039L22.4914 32.9095C25.601 34.2949 29.2566 33.2423 31.1532 30.4153L32.9294 27.7679C33.5069 26.9072 33.3311 25.7479 32.5243 25.097L26.5006 20.2375C25.6159 19.5237 24.3148 19.6899 23.638 20.6033L21.7745 23.1178C16.9929 20.7591 13.1108 16.877 10.7521 12.0954L13.2666 10.2319C14.18 9.55507 14.3462 8.25405 13.6324 7.36928L8.77269 1.3454C8.122 0.538833 6.963 0.362899 6.10227 0.940036L3.43658 2.72743C0.591893 4.63485 -0.454868 8.32055 0.962595 11.4384L1.99877 13.7177L2.00033 13.7211Z" fill="#1E1E1E"/>
</svg>
