<svg width="41" height="34" viewBox="0 0 41 34" fill="none" xmlns="http://www.w3.org/2000/svg">
<path fill-rule="evenodd" clip-rule="evenodd" d="M9.92338 0.941623C16.9604 0.312428 24.0396 0.312428 31.0767 0.941623L34.1113 1.21296C37.1361 1.48341 39.58 3.79416 40.0193 6.79901C41.0083 13.5637 41.0083 20.4362 40.0193 27.2009C39.58 30.2057 37.1361 32.5165 34.1113 32.7869L31.0767 33.0583C24.0396 33.6874 16.9604 33.6874 9.92338 33.0583L6.8887 32.7869C3.86397 32.5165 1.42006 30.2057 0.980753 27.2009C-0.00823265 20.4362 -0.00823283 13.5637 0.980753 6.79901C1.42006 3.79416 3.86397 1.48341 6.8887 1.21296L9.92338 0.941623ZM8.21115 6.67923C7.7463 6.42893 7.18408 6.44143 6.73082 6.71216C6.27756 6.9829 6 7.47198 6 7.99994V26.9999C6 27.8284 6.67157 28.4999 7.5 28.4999C8.32843 28.4999 9 27.8284 9 26.9999V10.5113L19.7888 16.3206C20.2328 16.5597 20.7672 16.5597 21.2112 16.3206L32 10.5113V26.9999C32 27.8284 32.6716 28.4999 33.5 28.4999C34.3284 28.4999 35 27.8284 35 26.9999V7.99994C35 7.47198 34.7224 6.9829 34.2692 6.71216C33.8159 6.44143 33.2537 6.42893 32.7888 6.67923L20.5 13.2963L8.21115 6.67923Z" fill="#1E1E1E"/>
</svg>
